HIERARCHY
ROOT hip
{
	OFFSET 0.000000 0.000000 0.000000 
	CHANNELS 6 Xposition Yposition Zposition Xrotation Zrotation Yrotation
	JOINT abdomen
	{
		OFFSET 0.000000 3.402643 0.000000 
		CHANNELS 3 Xrotation Zrotation Yrotation
		JOINT chest
		{
			OFFSET 0.000000 8.438565 -0.680529 
			CHANNELS 3 Xrotation Zrotation Yrotation
			JOINT neck
			{
				OFFSET 0.000000 10.207942 -0.272212 
				CHANNELS 3 Xrotation Zrotation Yrotation
				JOINT head
				{
					OFFSET 0.000000 3.130431 0.000000 
					CHANNELS 3 Xrotation Zrotation Yrotation
					End Site
					{
						OFFSET 0.000000 3.130435 0.000000 
					}
				}
			}
			JOINT lCollar
			{
				OFFSET 3.470700 6.669187 -0.816635 
				CHANNELS 3 Yrotation Zrotation Xrotation
				JOINT lShldr
				{
					OFFSET 3.198488 0.000000 0.000000 
					CHANNELS 3 Zrotation Yrotation Xrotation
					JOINT lForeArm
					{
						OFFSET 10.139888 0.000000 0.000000 
						CHANNELS 3 Yrotation Zrotation Xrotation
						JOINT lHand
						{
							OFFSET 8.370511 0.000000 0.000000 
							CHANNELS 3 Zrotation Yrotation Xrotation
							End Site
							{
								OFFSET 4.083176 0.000000 0.000000 
							}
						}
					}
				}
			}
			JOINT rCollar
			{
				OFFSET -3.470700 6.669187 -0.816635 
				CHANNELS 3 Yrotation Zrotation Xrotation
				JOINT rShldr
				{
					OFFSET -3.198488 0.000000 0.000000 
					CHANNELS 3 Zrotation Yrotation Xrotation
					JOINT rForeArm
					{
						OFFSET -10.139888 0.000000 0.000000 
						CHANNELS 3 Yrotation Zrotation Xrotation
						JOINT rHand
						{
							OFFSET -8.370511 0.000000 0.000000 
							CHANNELS 3 Zrotation Yrotation Xrotation
							End Site
							{
								OFFSET -4.083176 0.000000 0.000000 
							}
						}
					}
				}
			}
		}
	}
	JOINT lThigh
	{
		OFFSET 5.308129 -1.633274 1.361059 
		CHANNELS 3 Xrotation Zrotation Yrotation
		JOINT lShin
		{
			OFFSET -2.041588 -20.007561 0.000000 
			CHANNELS 3 Xrotation Zrotation Yrotation
			JOINT lFoot
			{
				OFFSET 0.000000 -19.190928 -1.224953 
				CHANNELS 3 Xrotation Yrotation Zrotation
				End Site
				{
					OFFSET 0.000000 -2.449906 4.627600 
				}
			}
		}
	}
	JOINT rThigh
	{
		OFFSET -5.308129 -1.633274 1.361059 
		CHANNELS 3 Xrotation Zrotation Yrotation
		JOINT rShin
		{
			OFFSET 2.041588 -20.007561 0.000000 
			CHANNELS 3 Xrotation Zrotation Yrotation
			JOINT rFoot
			{
				OFFSET 0.000000 -19.190928 -1.224953 
				CHANNELS 3 Xrotation Yrotation Zrotation
				End Site
				{
					OFFSET 0.000000 -2.449906 4.627600 
				}
			}
		}
	}
}
MOTION
Frames: 16
Frame Time: 0.033333
0.876431 29.613338 -0.699293 1.230469 3.857422 109.072266 55.626091 -6.222142 -11.679008 -13.261719 10.312501 1.347656 51.063168 8.107644 2.471410 -83.730469 9.169922 10.888672 2.000000 -2.000000 0.000000 -28.300781 -13.105469 -33.671871 -69.374428 -0.886463 -2.673453 -59.985912 44.190819 -57.426128 -2.000000 2.000000 0.000000 58.583981 -16.083986 -8.310547 112.191002 -1.161588 -2.948669 62.704567 -28.617592 -89.095978 -73.421417 23.744413 22.254917 58.316319 -2.718404 -4.380430 23.589130 4.228611 17.822369 -75.059616 -9.002547 -5.598230 56.418652 2.675601 4.026165 -4.268194 7.573710 -5.597599 
0.859550 29.628611 -0.711959 1.406250 4.033203 109.092484 55.458344 -6.331635 -11.832746 -13.261719 10.312501 1.347656 51.063168 8.107644 2.471410 -83.906250 8.876952 11.074220 2.000000 -2.000000 0.000000 -28.759766 -13.300781 -33.283497 -69.198639 -0.896213 -2.672885 -59.455212 44.348656 -57.543839 -2.000000 2.000000 0.000000 58.466793 -16.962889 -6.962890 112.718307 -1.190836 -2.950361 63.298244 -28.405048 -89.195168 -73.248421 23.746946 22.119232 58.335579 -2.885821 -4.345587 23.558985 4.338762 17.831837 -74.879364 -9.013121 -5.623217 56.428192 2.695152 4.027250 -4.266425 7.932010 -5.627540 
0.833859 29.632200 -0.730669 1.406250 4.189453 108.916016 55.458344 -6.331635 -11.832746 -13.261719 10.312501 1.347656 51.063168 8.107644 2.471410 -83.896484 8.583983 11.085443 2.000000 -2.000000 0.000000 -29.238281 -13.769532 -33.449596 -68.841934 -0.904955 -2.486588 -58.932182 44.800816 -57.379559 -2.000000 2.000000 0.000000 57.929684 -18.095701 -5.156250 113.772934 -1.239582 -2.953179 63.545765 -27.899900 -89.540909 -73.264229 23.782413 21.764885 58.379696 -3.051910 -4.428251 23.336290 4.628879 17.616650 -74.691612 -8.817559 -5.775585 56.252167 2.675532 4.022941 -4.299857 7.824756 -5.479279 
0.801592 29.611139 -0.753980 1.406250 4.384766 108.750748 55.476093 -6.426202 -11.971610 -13.261719 10.312501 1.523437 51.063168 8.107644 2.471410 -84.072266 8.291016 11.064455 2.000000 -2.000000 0.000000 -29.541016 -14.404297 -33.693836 -68.500107 -0.934203 -2.484887 -57.919930 45.295982 -57.248783 -2.000000 2.000000 0.000000 57.187500 -19.111326 -3.323508 114.480423 -1.250058 -3.110235 63.748566 -27.480406 -89.643799 -73.043739 23.923193 22.067884 58.335083 -2.708531 -4.405717 23.412107 4.274576 17.507782 -74.680008 -8.807423 -5.950550 56.066250 2.694966 4.008801 -4.285275 8.187912 -5.666747 
0.764985 29.558718 -0.780455 1.406250 4.384766 108.399185 55.476093 -6.426202 -11.971610 -13.261719 10.312501 1.523437 51.063168 8.107644 2.471410 -84.082031 7.861328 11.171875 2.000000 -2.000000 0.000000 -30.000000 -15.156250 -33.740234 -67.974220 -1.093588 -2.534284 -56.996735 45.943142 -56.821671 -2.000000 2.000000 0.000000 56.572269 -20.078125 -1.526788 115.002380 -1.270294 -3.267638 64.001625 -27.171289 -89.374268 -73.036980 24.091814 22.090569 58.482189 -2.714794 -4.401336 23.503569 4.512051 17.361835 -74.503372 -8.631531 -5.920498 55.890434 2.714620 3.985823 -4.343617 8.129788 -5.720108 
0.726273 29.497622 -0.808655 1.406250 4.541016 108.223427 55.493893 -6.535739 -12.126382 -13.437500 10.322266 1.486125 51.063168 8.107644 2.471410 -84.082031 7.558594 11.220704 2.000000 -2.000000 0.000000 -30.166016 -15.722656 -33.850304 -67.622620 -1.122836 -2.532583 -56.426769 46.393490 -56.801853 -2.000000 2.000000 0.000000 55.976563 -20.966797 -0.179275 115.530426 -1.279144 -2.945689 64.160431 -26.543985 -89.530464 -72.837189 24.243902 22.208019 58.482601 -2.700317 -4.393589 23.496258 4.522397 17.025883 -73.978821 -8.622292 -5.970265 55.722523 2.714789 4.020892 -4.170303 8.357458 -5.770120 
0.687692 29.489870 -0.837139 1.406250 4.541016 108.047646 55.478752 -6.623555 -11.974203 -13.457031 10.156250 1.435547 51.063168 8.107644 2.471410 -84.082031 7.265625 11.240234 2.000000 -2.000000 0.000000 -30.712893 -16.337891 -33.691402 -67.256760 -0.820160 -2.374180 -55.145054 46.690063 -56.291866 -2.000000 2.000000 0.000000 55.566410 -21.425781 0.562842 115.706192 -1.288893 -2.946253 64.470177 -26.394539 -89.445854 -73.046829 24.287361 21.773788 58.501778 -2.713268 -4.402071 23.489683 4.538383 17.009995 -73.979187 -8.456429 -5.930274 55.543316 2.743911 3.818819 -3.981789 8.553957 -5.624450 
0.651490 29.413725 -0.864472 1.406250 4.726563 107.705887 55.331047 -6.727282 -12.115320 -13.457031 10.156250 1.435547 51.063168 8.107644 2.471410 -84.082031 6.982421 11.249999 2.000000 -2.000000 0.000000 -30.781248 -16.787111 -33.733292 -67.092751 -0.970933 -2.443636 -54.908340 47.040344 -56.577579 -2.000000 2.000000 0.000000 55.371094 -21.650391 0.771484 115.706192 -1.288893 -2.946253 64.765350 -26.175850 -90.059410 -72.835464 24.447390 21.711578 58.482674 -2.710168 -4.389197 23.495348 4.570257 16.841270 -73.969460 -8.437076 -6.092939 55.543095 2.761830 3.818139 -3.963358 8.673750 -5.967918 
0.619892 29.404818 -0.889212 1.406250 4.726563 107.705887 55.339607 -6.831028 -12.257556 -13.457031 10.156250 1.435547 51.063168 8.107644 2.471410 -84.082031 6.699218 11.435547 2.000000 -2.000000 0.000000 -30.839844 -17.109377 -33.955074 -67.097343 -0.961062 -2.610443 -55.127544 47.110264 -56.975586 -2.000000 2.000000 0.000000 55.429691 -21.572264 0.191725 115.358986 -1.299368 -3.103309 64.834785 -26.434025 -90.355995 -72.851692 24.473055 21.516790 58.532684 -2.854641 -4.325501 23.345474 4.788019 16.752396 -73.970314 -8.271292 -6.043592 55.370945 2.761735 3.968879 -3.603704 8.687988 -6.384165 
0.595129 29.380398 -0.909919 1.406250 4.902344 107.696152 55.357193 -6.931444 -12.408920 -13.457031 10.156250 1.611328 51.063168 8.107644 2.471410 -84.111328 6.396484 11.446401 2.000000 -2.000000 0.000000 -30.839844 -17.470703 -34.345703 -67.097343 -0.961062 -2.610443 -54.980537 46.985260 -57.315689 -2.000000 2.000000 0.000000 55.439449 -21.337891 -0.527344 114.827324 -1.259645 -2.944561 65.188751 -26.629522 -90.925514 -72.835457 24.447395 21.711575 58.482674 -2.710178 -4.389201 23.392124 4.734673 16.923536 -73.611763 -8.271295 -6.102553 55.193584 2.773339 3.989974 -3.841296 8.507344 -5.863591 
0.579449 29.378662 -0.925157 1.572266 4.902344 107.901222 55.352196 -7.019194 -12.256871 -13.642578 10.009766 1.544666 51.063168 8.107644 2.471410 -83.925781 6.250000 11.387781 2.000000 -2.000000 0.000000 -30.937498 -17.519531 -34.719738 -67.458572 -1.283352 -2.601472 -55.122181 47.158951 -57.564137 -2.000000 2.000000 0.000000 55.498047 -20.947266 -1.484375 114.129150 -1.239745 -3.119417 65.354294 -26.892994 -91.508644 -72.685059 24.306562 21.372009 58.545609 -2.864863 -4.506173 23.582483 4.970269 16.931971 -73.781670 -8.436541 -6.103689 55.367111 2.763561 3.805337 -3.767347 8.642032 -5.992317 
0.584041 29.378431 -0.932911 1.572266 4.902344 108.252785 55.369534 -7.110447 -12.403664 -13.642578 10.009766 1.544666 51.063168 8.107644 2.471410 -83.925781 5.966796 11.592812 2.000000 -2.000000 0.000000 -30.898438 -17.519533 -34.026379 -67.798676 -1.123402 -2.542328 -55.616199 46.880619 -58.232403 -2.000000 2.000000 0.000000 55.722656 -20.556639 -2.854990 113.601830 -1.220246 -3.118289 65.621712 -27.357767 -91.865593 -72.677917 24.104342 21.694656 58.503883 -2.836948 -4.313668 23.701447 4.880748 17.281763 -73.609650 -8.456494 -6.139683 55.542339 2.763429 3.838249 -3.993628 8.586541 -5.854431 
0.610799 29.417891 -0.933354 1.572266 5.068359 108.594872 55.212994 -7.217569 -12.536736 -13.642578 10.009766 1.544666 51.063168 8.107644 2.471410 -83.750000 5.937499 11.435548 2.000000 -2.000000 0.000000 -30.927734 -16.669922 -32.929688 -68.494690 -0.914014 -2.642515 -56.538910 45.968395 -59.084492 -2.000000 2.000000 0.000000 55.722656 -20.214844 -3.567826 112.898727 -1.200748 -3.117162 65.735992 -27.520611 -91.858559 -72.516167 23.912920 21.870150 58.501438 -2.700305 -4.414472 23.546043 4.714492 17.406687 -73.651321 -8.642447 -5.839727 55.731995 2.724467 4.026513 -4.186455 8.025496 -5.740585 
0.648034 29.443233 -0.928308 1.757813 5.087891 108.975479 55.198864 -7.314437 -12.388166 -13.837891 9.833985 1.455078 51.063168 8.107644 2.471410 -83.593750 5.791015 11.553720 2.000000 -2.000000 0.000000 -30.732422 -15.722655 -32.314453 -69.569946 -1.209319 -2.674227 -57.679996 45.048424 -60.107182 -2.000000 2.000000 0.000000 55.703125 -19.716799 -4.485716 111.839577 -1.141302 -3.299311 65.436295 -27.934637 -91.928566 -72.514091 23.745049 21.820948 58.503178 -2.836950 -4.332961 23.394466 4.359887 17.696177 -73.634872 -8.817201 -5.676588 55.890484 2.724284 3.981045 -4.241911 7.911871 -5.626000 
0.684038 29.512775 -0.919595 1.757813 5.087891 109.327042 55.217113 -7.409046 -12.527015 -13.837891 9.833985 1.455078 51.063168 8.107644 2.471410 -83.408203 5.634765 11.670880 2.000000 -2.000000 0.000000 -30.615234 -14.599609 -30.832539 -70.615440 -1.181203 -2.695620 -59.197193 43.894348 -61.529369 -2.000000 2.000000 0.000000 55.791016 -18.828123 -5.647681 110.609596 -1.092215 -2.964213 64.909744 -28.277546 -91.324226 -72.322403 23.728813 22.035259 58.472984 -2.719832 -4.383927 23.525812 4.401601 17.901722 -73.651489 -9.014071 -5.567101 56.270901 2.690742 4.041870 -4.699266 7.478218 -5.107266 
0.707108 29.551777 -0.909041 1.757813 5.263672 109.864182 55.212791 -7.505913 -12.377247 -14.199219 9.687501 1.347656 51.063168 8.107644 2.471410 -83.076172 5.478515 11.612262 2.000000 -2.000000 0.000000 -30.449219 -13.828125 -29.287107 -71.651253 -0.801548 -2.727421 -60.310146 42.778477 -62.223732 -2.000000 2.000000 0.000000 55.908207 -18.417969 -6.555819 109.379173 -1.043468 -2.961394 64.225380 -28.533680 -90.864822 -72.161201 23.362883 22.174429 58.472546 -2.710178 -4.398073 23.808929 4.281139 18.108040 -73.654579 -9.198385 -5.387878 56.418987 2.722808 4.001999 -4.713139 7.386407 -4.965644 
